<?xml version="1.0" standalone="no"?>
<!DOCTYPE svg PUBLIC "-//W3C//DTD SVG 20010904//EN"
 "http://www.w3.org/TR/2001/REC-SVG-20010904/DTD/svg10.dtd">
<svg version="1.0" xmlns="http://www.w3.org/2000/svg"
 width="200.000000pt" height="200.000000pt" viewBox="0 0 200.000000 200.000000"
 preserveAspectRatio="xMidYMid meet">
<metadata>
Created by potrace 1.11, written by Peter Selinger 2001-2013
</metadata>
<g transform="translate(0.000000,200.000000) scale(0.100000,-0.100000)"
fill="#000000" stroke="none">
<path d="M848 1914 c-256 -60 -456 -253 -526 -507 -23 -87 -22 -281 2 -362 50
-167 147 -301 285 -394 197 -134 473 -157 681 -57 136 66 214 134 296 258 153
231 150 538 -6 768 -99 145 -242 246 -412 289 -87 23 -236 25 -320 5z m332
-112 c186 -60 335 -211 392 -397 23 -72 31 -218 17 -295 -16 -85 -88 -226
-146 -285 -44 -45 -93 -85 -103 -85 -5 0 -10 -4 -10 -9 0 -8 -113 -63 -157
-75 -57 -17 -75 -19 -173 -20 -124 -1 -209 21 -307 81 -82 50 -133 98 -187
176 -77 114 -106 216 -102 362 3 106 29 193 84 283 50 80 67 100 135 155 73
59 122 85 217 113 97 29 242 27 340 -4z"/>
<path d="M915 1517 c-62 -21 -87 -36 -132 -83 -147 -153 -86 -409 114 -484
140 -52 295 7 367 141 23 41 30 68 32 123 4 100 -23 165 -94 233 -30 29 -57
52 -60 51 -4 -1 -20 4 -37 11 -44 19 -144 23 -190 8z"/>
<path d="M437 342 c-2 -4 -3 -61 -3 -127 l1 -120 74 -3 c51 -2 77 1 82 10 13
21 0 28 -57 28 -44 0 -54 3 -55 18 0 9 -1 56 -1 104 -1 76 -3 87 -19 91 -11 3
-20 2 -22 -1z"/>
<path d="M711 329 c-64 -39 -81 -133 -35 -188 35 -42 61 -54 107 -53 130 5
178 168 71 239 -36 23 -106 24 -143 2z m130 -48 c33 -34 38 -74 12 -111 -23
-35 -33 -40 -75 -40 -28 0 -42 7 -62 31 -30 35 -32 58 -10 100 28 55 91 64
135 20z"/>
<path d="M1061 333 c-90 -44 -95 -177 -10 -227 16 -10 46 -17 67 -18 42 0 101
25 103 45 4 43 3 54 -4 69 -12 28 -37 10 -37 -28 0 -28 -5 -35 -25 -40 -60
-15 -110 14 -120 68 -6 30 20 85 43 92 45 15 67 15 87 2 19 -13 23 -12 34 5
10 18 8 21 -23 34 -45 19 -73 19 -115 -2z"/>
<path d="M1395 343 c-34 -9 -72 -41 -85 -73 -35 -84 28 -180 118 -180 79 0
133 52 134 130 1 84 -82 145 -167 123z m103 -68 c30 -36 29 -85 -3 -118 -38
-37 -81 -40 -117 -8 -49 45 -47 110 6 142 40 25 84 18 114 -16z"/>
</g>
</svg>
