<svg version="1" xmlns="http://www.w3.org/2000/svg" width="266.667" height="266.667" viewBox="0 0 200.000000 200.000000"><path d="M84.8 8.6c-25.6 6-45.6 25.3-52.6 50.7-2.3 8.7-2.2 28.1.2 36.2 5 16.7 14.7 30.1 28.5 39.4 19.7 13.4 47.3 15.7 68.1 5.7 13.6-6.6 21.4-13.4 29.6-25.8 15.3-23.1 15-53.8-.6-76.8-9.9-14.5-24.2-24.6-41.2-28.9-8.7-2.3-23.6-2.5-32-.5zM118 19.8c18.6 6 33.5 21.1 39.2 39.7 2.3 7.2 3.1 21.8 1.7 29.5-1.6 8.5-8.8 22.6-14.6 28.5-4.4 4.5-9.3 8.5-10.3 8.5-.5 0-1 .4-1 .9 0 .8-11.3 6.3-15.7 7.5-5.7 1.7-7.5 1.9-17.3 2-12.4.1-20.9-2.1-30.7-8.1-8.2-5-13.3-9.8-18.7-17.6C42.9 99.3 40 89.1 40.4 74.5c.3-10.6 2.9-19.3 8.4-28.3 5-8 6.7-10 13.5-15.5 7.3-5.9 12.2-8.5 21.7-11.3 9.7-2.9 24.2-2.7 34 .4z"/><path d="M91.5 48.3c-6.2 2.1-8.7 3.6-13.2 8.3-14.7 15.3-8.6 40.9 11.4 48.4 14 5.2 29.5-.7 36.7-14.1 2.3-4.1 3-6.8 3.2-12.3.4-10-2.3-16.5-9.4-23.3-3-2.9-5.7-5.2-6-5.1-.4.1-2-.4-3.7-1.1-4.4-1.9-14.4-2.3-19-.8zM43.7 165.8c-.2.4-.3 6.1-.3 12.7l.1 12 7.4.3c5.1.2 7.7-.1 8.2-1 1.3-2.1 0-2.8-5.7-2.8-4.4 0-5.4-.3-5.5-1.8 0-.9-.1-5.6-.1-10.4-.1-7.6-.3-8.7-1.9-9.1-1.1-.3-2-.2-2.2.1zM71.1 167.1c-6.4 3.9-8.1 13.3-3.5 18.8 3.5 4.2 6.1 5.4 10.7 5.3 13-.5 17.8-16.8 7.1-23.9-3.6-2.3-10.6-2.4-14.3-.2zm13 4.8c3.3 3.4 3.8 7.4 1.2 11.1-2.3 3.5-3.3 4-7.5 4-2.8 0-4.2-.7-6.2-3.1-3-3.5-3.2-5.8-1-10 2.8-5.5 9.1-6.4 13.5-2zM106.1 166.7c-9 4.4-9.5 17.7-1 22.7 1.6 1 4.6 1.7 6.7 1.8 4.2 0 10.1-2.5 10.3-4.5.4-4.3.3-5.4-.4-6.9-1.2-2.8-3.7-1-3.7 2.8 0 2.8-.5 3.5-2.5 4-6 1.5-11-1.4-12-6.8-.6-3 2-8.5 4.3-9.2 4.5-1.5 6.7-1.5 8.7-.2 1.9 1.3 2.3 1.2 3.4-.5 1-1.8.8-2.1-2.3-3.4-4.5-1.9-7.3-1.9-11.5.2zM139.5 165.7c-3.4.9-7.2 4.1-8.5 7.3-3.5 8.4 2.8 18 11.8 18 7.9 0 13.3-5.2 13.4-13 .1-8.4-8.2-14.5-16.7-12.3zm10.3 6.8c3 3.6 2.9 8.5-.3 11.8-3.8 3.7-8.1 4-11.7.8-4.9-4.5-4.7-11 .6-14.2 4-2.5 8.4-1.8 11.4 1.6z"/></svg>