<?xml version="1.0" encoding="utf-8"?>
<!-- Generator: Adobe Illustrator 24.1.3, SVG Export Plug-In . SVG Version: 6.00 Build 0)  -->
<svg version="1.1" id="Layer_1" xmlns="http://www.w3.org/2000/svg" xmlns:xlink="http://www.w3.org/1999/xlink" x="0px" y="0px"
	 viewBox="0 0 24 24" style="enable-background:new 0 0 24 24;" xml:space="preserve">
<g id="Thin-S" transform="matrix(1 0 0 1 812.916 696)">
	<path d="M-792-692.9c-1-1-2.3-1.2-4.5-1.2h-9c-2.1,0-3.4,0.3-4.3,1.2c-1,1-1.2,2.3-1.2,4.3v8.9c0,2.2,0.3,3.5,1.2,4.5
		c1,1,2.3,1.2,4.5,1.2h8.9c2.2,0,3.5-0.3,4.5-1.2c1-1,1.2-2.3,1.2-4.5v-8.8C-790.8-690.6-791.1-691.9-792-692.9z M-791.8-688.7v9.4
		c0,1.5-0.3,2.7-1,3.4c-0.7,0.7-1.9,1-3.4,1h-9.4c-1.5,0-2.7-0.3-3.4-1c-0.7-0.7-1-1.9-1-3.4v-9.3c0-1.6,0.2-2.8,1-3.5
		c0.7-0.7,1.9-1,3.5-1h9.3c1.5,0,2.7,0.3,3.4,1C-792.1-691.4-791.8-690.2-791.8-688.7z M-800.9-678.6c0.3,0,0.5-0.2,0.5-0.5v-4.4
		h4.4c0.3,0,0.6-0.2,0.6-0.5c0-0.3-0.2-0.5-0.6-0.5h-4.4v-4.4c0-0.3-0.2-0.6-0.5-0.6c-0.3,0-0.5,0.2-0.5,0.6v4.4h-4.4
		c-0.3,0-0.6,0.2-0.6,0.5c0,0.3,0.2,0.5,0.6,0.5h4.4v4.4C-801.4-678.8-801.2-678.6-800.9-678.6z"/>
</g>
</svg>
