<?xml version="1.0" encoding="utf-8"?>
<!-- Generator: Adobe Illustrator 24.1.3, SVG Export Plug-In . SVG Version: 6.00 Build 0)  -->
<svg version="1.1" id="Layer_1" xmlns="http://www.w3.org/2000/svg" xmlns:xlink="http://www.w3.org/1999/xlink" x="0px" y="0px"
	 viewBox="0 0 24 24" style="enable-background:new 0 0 24 24;" xml:space="preserve">
<g id="Thin-S" transform="matrix(1 0 0 1 814.015 696)">
	<path d="M-802-680.9c0.2,0,0.4-0.2,0.4-0.4v-10.3l0-1.3l1,1l1.7,1.8c0.1,0.1,0.2,0.1,0.3,0.1c0.2,0,0.4-0.2,0.4-0.4
		c0-0.1,0-0.2-0.1-0.3l-3.3-3.3c-0.1-0.1-0.2-0.1-0.3-0.1c-0.1,0-0.2,0-0.3,0.1l-3.3,3.3c-0.1,0.1-0.1,0.2-0.1,0.3
		c0,0.2,0.2,0.4,0.4,0.4c0.1,0,0.2,0,0.3-0.1l1.7-1.8l1-1l0,1.3v10.3C-802.4-681.1-802.2-680.9-802-680.9z M-807.3-674h10.6
		c1.7,0,2.5-0.9,2.5-2.5v-9.6c0-1.6-0.9-2.5-2.5-2.5h-2.7v0.8h2.6c1.1,0,1.8,0.6,1.8,1.8v9.5c0,1.2-0.6,1.8-1.8,1.8h-10.5
		c-1.1,0-1.8-0.6-1.8-1.8v-9.5c0-1.2,0.6-1.8,1.8-1.8h2.7v-0.8h-2.7c-1.7,0-2.5,0.9-2.5,2.5v9.6C-809.8-674.8-809-674-807.3-674z"/>
</g>
</svg>
